<svg width="69" height="89" viewBox="0 0 69 89" fill="none" xmlns="http://www.w3.org/2000/svg">
<path d="M69 34.6111C69 53.7263 34.5 89 34.5 89C34.5 89 0 53.7263 0 34.6111C0 15.4959 15.4462 0 34.5 0C53.5538 0 69 15.4959 69 34.6111Z" fill="#FCFCFC"/>
<path d="M55.6706 53.54L52.6072 27.122C52.559 17.6955 44.6886 10.0415 35.0215 10.0415C25.3543 10.0415 17.4839 17.696 17.4363 27.122L14.3723 53.54C14.3211 53.982 14.4732 54.4235 14.7882 54.745C15.1032 55.067 15.5493 55.2385 16.0021 55.2055C16.0339 55.2035 19.167 55.0005 21.9887 55.0005C23.9775 55.0005 24.966 55.1005 25.4455 55.185C27.8456 55.606 32.5307 58.574 34.1333 59.6825C34.3997 59.866 34.7106 59.9585 35.0215 59.9585C35.3329 59.9585 35.6453 59.8655 35.9117 59.6805C37.4641 58.603 42.0088 55.7085 44.3613 55.2645C44.9027 55.1625 46.048 55.041 48.4323 55.041C51.1751 55.041 54.0239 55.2045 54.0521 55.2065C54.5023 55.227 54.9458 55.062 55.2583 54.741C55.5707 54.42 55.7218 53.98 55.6706 53.54ZM48.4323 52.041C46.2928 52.041 44.7711 52.132 43.7779 52.3195C41.0223 52.8395 36.8695 55.4185 35.0194 56.637C33.1253 55.394 28.8177 52.729 25.9884 52.232C25.0997 52.076 23.7911 52.0005 21.9876 52.0005C20.4326 52.0005 18.8197 52.0575 17.6294 52.113L20.4987 27.3775C20.5053 27.3215 20.5084 27.265 20.5084 27.209C20.5084 19.397 27.0184 13.042 35.0209 13.042C43.023 13.042 49.5335 19.397 49.5335 27.209C49.5335 27.2655 49.5371 27.322 49.5432 27.3775L52.4136 52.1265C51.3257 52.0835 49.8777 52.041 48.4323 52.041Z" fill="#0F0049"/>
<path d="M25.802 29.061C27.3225 29.061 28.555 27.8578 28.555 26.3735C28.555 24.8893 27.3225 23.686 25.802 23.686C24.2815 23.686 23.049 24.8893 23.049 26.3735C23.049 27.8578 24.2815 29.061 25.802 29.061Z" fill="#0F0049"/>
<path d="M44.2411 29.061C45.7615 29.061 46.9941 27.8578 46.9941 26.3735C46.9941 24.8893 45.7615 23.686 44.2411 23.686C42.7206 23.686 41.488 24.8893 41.488 26.3735C41.488 27.8578 42.7206 29.061 44.2411 29.061Z" fill="#0F0049"/>
<path d="M35.0215 47.5816L41.8788 30.2471H28.1632L35.0215 47.5816ZM35.0215 39.2546L32.6449 33.2471H37.3981L35.0215 39.2546Z" fill="#0F0049"/>
</svg>
